<?xml version="1.0" encoding="utf-8"?>
<!-- Generator: Adobe Illustrator 25.0.1, SVG Export Plug-In . SVG Version: 6.00 Build 0)  -->
<svg version="1.1" id="Layer_1" xmlns="http://www.w3.org/2000/svg" xmlns:xlink="http://www.w3.org/1999/xlink" x="0px" y="0px"
	 viewBox="0 0 40.13 16.92" style="enable-background:new 0 0 40.13 16.92;" xml:space="preserve">
<style type="text/css">
	.st0{fill:#003468;}
	.st1{fill:url(#SVGID_1_);}
	.st2{fill:url(#SVGID_2_);}
	.st3{fill:url(#SVGID_3_);}
	.st4{fill:url(#SVGID_4_);}
	.st5{fill:url(#SVGID_5_);}
</style>
<g>
	<g>
		<path class="st0" d="M39.07,2.82c-0.77,0-1.64,0-1.64,0v8.07c0,2.39,0.05,3.87-0.65,4.9c-0.02,0.03-0.05,0.07-0.07,0.1
			c0,0,0,0,0,0c-0.46,0.59-0.99,0.76-1.07,0.78c-0.09,0.02-0.26,0.07-0.24,0.18c0.02,0.1,0.2,0.08,0.62-0.02
			c0.25-0.06,0.52-0.18,0.69-0.26c0.03-0.01,0.07-0.03,0.11-0.05c1.34-0.68,1.83-1.64,2.11-2.5c0.23-0.71,0.26-1.63,0.3-2.43
			c0.03-0.71,0.01-1.52,0.01-2.12V6.88c0-1.25,0.01-1.8,0.02-2.13c0,0,0.01-0.59,0.02-0.62c0.02-0.23,0.03-0.43,0.09-0.62
			c0.05-0.13,0.13-0.26,0.24-0.34c0.21-0.17,0.52-0.08,0.52-0.22C40.13,2.79,39.84,2.82,39.07,2.82z"/>
		<path class="st0" d="M23.98,3.63c-0.25-0.2-0.89-0.8-2.71-0.8c-0.67,0-2.92,0-2.92,0c-0.77,0-1.06-0.04-1.06,0.12
			c0,0.14,0.32,0.05,0.52,0.22c0.09,0.07,0.16,0.17,0.21,0.28c0.12,0.35,0.15,0.95,0.15,1.19c0.02,0.42,0.04,1.06,0.04,2.25v2.46
			c0,0.86,0,1.99-0.02,2.59c0,0.05,0,0.12-0.01,0.2l0,0c0,0,0,0,0,0c-0.01,0.14-0.02,0.31-0.04,0.48c0,0.02,0,0.03-0.01,0.05
			c-0.03,0.21-0.06,0.35-0.11,0.47c-0.05,0.1-0.11,0.19-0.2,0.26c-0.21,0.17-0.52,0.08-0.52,0.22c0,0.16,0.29,0.12,1.06,0.12
			c0.77,0,1.63,0,1.63,0l0-10c0-0.15,0.04-0.24,0.12-0.27c0.13-0.04,0.35-0.06,0.57-0.06c0.33,0,0.93,0.08,1.46,0.55
			c0.81,0.7,0.87,1.64,0.86,2.1c-0.02,0.83-0.29,1.38-0.61,1.75c-0.68,0.67-1.2,0.59-1.28,0.59c-0.12,0-0.28,0.03-0.27,0.13
			c0.01,0.11,0.18,0.12,0.62,0.1c0.45-0.03,0.79-0.13,0.9-0.17c1.26-0.41,2.54-1.43,2.46-3.17C24.77,4.38,24.29,3.88,23.98,3.63z"/>
		<path class="st0" d="M33.76,2.82c-0.66,0-0.91-0.03-0.91,0.12c0,0.14,0.32,0.05,0.52,0.22c0.06,0.05,0.11,0.11,0.16,0.18
			c0.06,0.11,0.1,0.26,0.13,0.43c0.08,0.44,0.07,0.97,0.07,0.97h0l0,5.39c-0.67-0.64-5.99-5.94-7.39-7.27
			c-0.05-0.04-0.13-0.07-0.19-0.06c-0.1,0.02-0.12,0.12-0.13,0.19l0,10.74c0,0,0.45,0,1.22,0c0.77,0,1.06,0.04,1.06-0.12
			c0-0.14-0.32-0.05-0.52-0.22c-0.05-0.04-0.09-0.08-0.12-0.13c0-0.01-0.01-0.01-0.01-0.02c0,0,0,0,0,0
			c-0.22-0.38-0.22-1.42-0.22-1.42h0V6.42c0,0,6.06,5.9,7.45,7.28c0.04,0.03,0.12,0.05,0.17,0.03c0.1-0.03,0.11-0.15,0.11-0.22h0
			l0-10.7C35.16,2.82,33.76,2.82,33.76,2.82z"/>
	</g>
	<g>
		
			<linearGradient id="SVGID_1_" gradientUnits="userSpaceOnUse" x1="44.6406" y1="26.1622" x2="59.6442" y2="29.3513" gradientTransform="matrix(1 0 0 -1 -43.8023 35.1165)">
			<stop  offset="5.494510e-03" style="stop-color:#FFFFFF"/>
			<stop  offset="0.456" style="stop-color:#E7D1A2"/>
			<stop  offset="0.5043" style="stop-color:#E6CF9F"/>
			<stop  offset="0.5458" style="stop-color:#E3CA96"/>
			<stop  offset="0.5849" style="stop-color:#DFC188"/>
			<stop  offset="0.6222" style="stop-color:#D9B475"/>
			<stop  offset="0.6264" style="stop-color:#D8B373"/>
			<stop  offset="0.6889" style="stop-color:#C19F66"/>
			<stop  offset="0.812" style="stop-color:#92764B"/>
			<stop  offset="0.9826" style="stop-color:#534225"/>
			<stop  offset="1" style="stop-color:#4D3D21"/>
		</linearGradient>
		<path class="st1" d="M13.87,5.67C13.46,5.28,13.18,5,13.18,5c-5.42-1.4-12.6,2.6-12.62,2.64c8.89-2.48,14.68-0.05,15.79,0.52
			L13.87,5.67z"/>
		
			<linearGradient id="SVGID_2_" gradientUnits="userSpaceOnUse" x1="45.6227" y1="30.8023" x2="55.7742" y2="30.8023" gradientTransform="matrix(1 0 0 -1 -43.8023 35.1165)">
			<stop  offset="5.494510e-03" style="stop-color:#FFFFFF"/>
			<stop  offset="0.456" style="stop-color:#E7D1A2"/>
			<stop  offset="0.5043" style="stop-color:#E6CF9F"/>
			<stop  offset="0.5458" style="stop-color:#E3CA96"/>
			<stop  offset="0.5849" style="stop-color:#DFC188"/>
			<stop  offset="0.6222" style="stop-color:#D9B475"/>
			<stop  offset="0.6264" style="stop-color:#D8B373"/>
			<stop  offset="0.6889" style="stop-color:#C19F66"/>
			<stop  offset="0.812" style="stop-color:#92764B"/>
			<stop  offset="0.9826" style="stop-color:#534225"/>
			<stop  offset="1" style="stop-color:#4D3D21"/>
		</linearGradient>
		<path class="st2" d="M10.57,2.38c-0.06-0.05-0.1-0.08-0.1-0.09C7,1.76,1.82,6.38,1.82,6.38c5.83-3.09,9.2-2.78,10.15-2.6
			L10.57,2.38z"/>
		
			<linearGradient id="SVGID_3_" gradientUnits="userSpaceOnUse" x1="43.8023" y1="25.3906" x2="58.412" y2="25.3906" gradientTransform="matrix(1 0 0 -1 -43.8023 35.1165)">
			<stop  offset="5.494510e-03" style="stop-color:#FFFFFF"/>
			<stop  offset="0.456" style="stop-color:#E7D1A2"/>
			<stop  offset="0.5043" style="stop-color:#E6CF9F"/>
			<stop  offset="0.5458" style="stop-color:#E3CA96"/>
			<stop  offset="0.5849" style="stop-color:#DFC188"/>
			<stop  offset="0.6222" style="stop-color:#D9B475"/>
			<stop  offset="0.6264" style="stop-color:#D8B373"/>
			<stop  offset="0.6889" style="stop-color:#C19F66"/>
			<stop  offset="0.812" style="stop-color:#92764B"/>
			<stop  offset="0.9826" style="stop-color:#534225"/>
			<stop  offset="1" style="stop-color:#4D3D21"/>
		</linearGradient>
		<path class="st3" d="M12.29,12.25l2.31-2.31C13.98,9.12,10.49,5.49,0,8.17C0,8.17,9.47,7.36,12.29,12.25z"/>
		
			<linearGradient id="SVGID_4_" gradientUnits="userSpaceOnUse" x1="44.8899" y1="22.5714" x2="54.7195" y2="22.5714" gradientTransform="matrix(1 0 0 -1 -43.8023 35.1165)">
			<stop  offset="5.494510e-03" style="stop-color:#FFFFFF"/>
			<stop  offset="0.456" style="stop-color:#E7D1A2"/>
			<stop  offset="0.5043" style="stop-color:#E6CF9F"/>
			<stop  offset="0.5458" style="stop-color:#E3CA96"/>
			<stop  offset="0.5849" style="stop-color:#DFC188"/>
			<stop  offset="0.6222" style="stop-color:#D9B475"/>
			<stop  offset="0.6264" style="stop-color:#D8B373"/>
			<stop  offset="0.6889" style="stop-color:#C19F66"/>
			<stop  offset="0.812" style="stop-color:#92764B"/>
			<stop  offset="0.9826" style="stop-color:#534225"/>
			<stop  offset="1" style="stop-color:#4D3D21"/>
		</linearGradient>
		<path class="st4" d="M8.19,16.35l2.73-2.72c-0.3-0.55-3.05-5.25-9.83-4.86C1.11,8.76,6.84,9.71,8.19,16.35z"/>
		
			<linearGradient id="SVGID_5_" gradientUnits="userSpaceOnUse" x1="47.8747" y1="33.0583" x2="53.6827" y2="33.0583" gradientTransform="matrix(1 0 0 -1 -43.8023 35.1165)">
			<stop  offset="5.494510e-03" style="stop-color:#FFFFFF"/>
			<stop  offset="0.456" style="stop-color:#E7D1A2"/>
			<stop  offset="0.5043" style="stop-color:#E6CF9F"/>
			<stop  offset="0.5458" style="stop-color:#E3CA96"/>
			<stop  offset="0.5849" style="stop-color:#DFC188"/>
			<stop  offset="0.6222" style="stop-color:#D9B475"/>
			<stop  offset="0.6264" style="stop-color:#D8B373"/>
			<stop  offset="0.6889" style="stop-color:#C19F66"/>
			<stop  offset="0.812" style="stop-color:#92764B"/>
			<stop  offset="0.9826" style="stop-color:#534225"/>
			<stop  offset="1" style="stop-color:#4D3D21"/>
		</linearGradient>
		<path class="st5" d="M4.41,3.77L4.07,4.12c0,0,3.72-2.79,5.81-2.43L8.19,0L4.41,3.77z"/>
	</g>
</g>
</svg>
